<svg width="26" height="25" viewBox="0 0 26 25" fill="none" xmlns="http://www.w3.org/2000/svg">
<path d="M1 1H5.23529C6.79469 1 8.05882 2.26853 8.05882 3.83333M8.05882 3.83333V10.9167M8.05882 3.83333H10.8578C14.7699 3.83333 17.9412 7.00465 17.9412 10.9167V10.9167M8.05882 18C6.49943 18 5.23529 19.2685 5.23529 20.8333C5.23529 22.3981 6.49943 23.6667 8.05882 23.6667C9.11352 23.6667 10.0331 23.0864 10.5179 22.2266M8.05882 18C9.61822 18 10.8824 19.2685 10.8824 20.8333C10.8824 21.3398 10.7499 21.8152 10.5179 22.2266M8.05882 18V10.9167M25 22.25H23.5882M10.5179 22.2266C10.6372 22.242 10.7589 22.25 10.8824 22.25H23.5882M8.05882 10.9167H17.9412M23.5882 22.25V16.5637C23.5882 13.4449 21.06 10.9167 17.9412 10.9167V10.9167" stroke="black" stroke-width="1.5" stroke-linecap="round"/>
</svg>
