<svg width="20" height="20" viewBox="0 0 20 20" fill="none" xmlns="http://www.w3.org/2000/svg">
<path d="M17.5 2.5V1.75H18.25V2.5H17.5ZM9.697 11.3637C9.4041 11.6566 8.92923 11.6566 8.63634 11.3637C8.34344 11.0708 8.34344 10.5959 8.63634 10.303L9.697 11.3637ZM16.75 9.16667V2.5H18.25V9.16667H16.75ZM17.5 3.25H10.8333V1.75H17.5V3.25ZM18.0303 3.03033L9.697 11.3637L8.63634 10.303L16.9697 1.96967L18.0303 3.03033Z" fill="black" fill-opacity="0.3"/>
<path d="M16.666 12.5002V12.5002C16.666 13.5858 16.666 14.1286 16.5272 14.5689C16.2328 15.5024 15.5016 16.2337 14.5681 16.528C14.1278 16.6668 13.585 16.6668 12.4993 16.6668H9.33268C6.50425 16.6668 5.09004 16.6668 4.21136 15.7882C3.33268 14.9095 3.33268 13.4953 3.33268 10.6668V7.50016C3.33268 6.41455 3.33268 5.87175 3.47153 5.43138C3.76586 4.49789 4.49707 3.76667 5.43056 3.47235C5.87094 3.3335 6.41374 3.3335 7.49935 3.3335V3.3335" stroke="black" stroke-opacity="0.3" stroke-width="1.5" stroke-linecap="round"/>
</svg>
