<svg width="22" height="22" viewBox="0 0 22 22" fill="none" xmlns="http://www.w3.org/2000/svg">
<path d="M8.84799 4.82176C9.75993 2.5913 10.2159 1.47607 11 1.47607C11.7841 1.47607 12.2401 2.5913 13.152 4.82176L13.1945 4.92562C13.7097 6.18572 13.9673 6.81577 14.4923 7.19872C15.0173 7.58168 15.7065 7.64223 17.0848 7.76334L17.334 7.78523C19.5899 7.98344 20.7178 8.08255 20.9592 8.78658C21.2005 9.49062 20.3629 10.2383 18.6876 11.7336L18.1284 12.2327C17.2804 12.9897 16.8563 13.3681 16.6587 13.8642C16.6218 13.9567 16.5912 14.0515 16.567 14.148C16.437 14.6651 16.5612 15.2142 16.8096 16.3123L16.8869 16.6541C17.3433 18.6723 17.5715 19.6814 17.173 20.1166C17.0241 20.2793 16.8306 20.3964 16.6157 20.4539C16.0404 20.6079 15.2237 19.955 13.5902 18.6491C12.5176 17.7916 11.9813 17.3629 11.3656 17.2665C11.1234 17.2285 10.8766 17.2285 10.6344 17.2665C10.0187 17.3629 9.48238 17.7916 8.40979 18.6491C6.77633 19.955 5.95961 20.6079 5.38434 20.4539C5.16938 20.3964 4.97587 20.2793 4.82698 20.1166C4.42854 19.6814 4.65674 18.6723 5.11314 16.6541L5.19045 16.3123C5.43879 15.2142 5.56296 14.6651 5.43305 14.148C5.40881 14.0515 5.37817 13.9567 5.3413 13.8642C5.14366 13.3681 4.71963 12.9897 3.87156 12.2327L3.31243 11.7336C1.63713 10.2383 0.799483 9.49062 1.04083 8.78658C1.28218 8.08255 2.41011 7.98344 4.66598 7.78523L4.91516 7.76334C6.29352 7.64223 6.9827 7.58168 7.50771 7.19872C8.03272 6.81577 8.29032 6.18572 8.80553 4.92562L8.84799 4.82176Z" stroke="#222222" stroke-width="1.5"/>
</svg>
