<svg width="25" height="25" viewBox="0 0 25 25" fill="none" xmlns="http://www.w3.org/2000/svg">
<path fill-rule="evenodd" clip-rule="evenodd" d="M1.04492 2.34375C1.04492 1.91228 1.3947 1.5625 1.82617 1.5625H3.80668C4.58683 1.5625 5.2805 2.05895 5.53215 2.7974L6.01999 4.22891H19.0133C21.7459 4.22891 23.9612 6.44417 23.9612 9.17683V13.4918C23.9612 16.2245 21.7459 18.4398 19.0133 18.4398H11.2175C8.82226 18.4398 6.77095 16.724 6.34753 14.3665L4.70234 5.20633L4.05317 3.30141C4.01722 3.19592 3.91813 3.125 3.80668 3.125H1.82617C1.3947 3.125 1.04492 2.77522 1.04492 2.34375ZM6.39492 5.79141L7.88542 14.0903C8.17513 15.7034 9.57866 16.8773 11.2175 16.8773H19.0133C20.883 16.8773 22.3987 15.3616 22.3987 13.4918V9.17683C22.3987 7.30711 20.883 5.79141 19.0133 5.79141H6.39492Z" fill="black"/>
<path fill-rule="evenodd" clip-rule="evenodd" d="M9.89648 21.3542C9.89648 20.4912 10.596 19.7917 11.459 19.7917H11.4694C12.3323 19.7917 13.0319 20.4912 13.0319 21.3542C13.0319 22.2171 12.3323 22.9167 11.4694 22.9167H11.459C10.596 22.9167 9.89648 22.2171 9.89648 21.3542Z" fill="black"/>
<path fill-rule="evenodd" clip-rule="evenodd" d="M18.2305 21.3542C18.2305 20.4912 18.93 19.7917 19.793 19.7917H19.8034C20.6663 19.7917 21.3659 20.4912 21.3659 21.3542C21.3659 22.2171 20.6663 22.9167 19.8034 22.9167H19.793C18.93 22.9167 18.2305 22.2171 18.2305 21.3542Z" fill="black"/>
</svg>
