<svg width="24" height="22" viewBox="0 0 24 22" fill="none" xmlns="http://www.w3.org/2000/svg">
<path d="M1 11.0002L0.414348 10.5316L0.0395313 11.0002L0.414348 11.4687L1 11.0002ZM10.75 11.7502C11.1642 11.7502 11.5 11.4144 11.5 11.0002C11.5 10.5859 11.1642 10.2502 10.75 10.2502V11.7502ZM4.74768 5.11497L0.414348 10.5316L1.58565 11.4687L5.91898 6.05202L4.74768 5.11497ZM0.414348 11.4687L4.74768 16.8853L5.91898 15.9483L1.58565 10.5316L0.414348 11.4687ZM1 11.7502H10.75V10.2502H1V11.7502Z" fill="#222222"/>
<path d="M9.66797 6.80968V5.72192C9.66797 4.10358 9.66797 3.29441 10.1419 2.73492C10.6159 2.17543 11.4141 2.0424 13.0104 1.77635L15.6816 1.33115C18.9247 0.790631 20.5462 0.520373 21.6071 1.41907C22.668 2.31777 22.668 3.96168 22.668 7.24951V14.7507C22.668 18.0385 22.668 19.6824 21.6071 20.5811C20.5462 21.4798 18.9247 21.2095 15.6816 20.669L13.0104 20.2238C11.4141 19.9578 10.6159 19.8247 10.1419 19.2652C9.66797 18.7058 9.66797 17.8966 9.66797 16.2782V15.4049" stroke="#222222" stroke-width="1.5"/>
</svg>
