<svg width="37" height="36" viewBox="0 0 37 36" fill="none" xmlns="http://www.w3.org/2000/svg">
<path d="M14.7094 7.00556C16.3154 3.00185 17.1184 1 18.4992 1C19.8801 1 20.6831 3.00185 22.289 7.00556L22.3638 7.192C23.2711 9.45389 23.7248 10.5848 24.6493 11.2722C25.5739 11.9597 26.7876 12.0683 29.215 12.2857L29.6538 12.325C33.6265 12.6808 35.6129 12.8587 36.0379 14.1225C36.4629 15.3862 34.9878 16.7283 32.0375 19.4125L31.0528 20.3083C29.5593 21.6671 28.8126 22.3464 28.4645 23.2369C28.3996 23.403 28.3456 23.5731 28.303 23.7463C28.0742 24.6746 28.2928 25.6601 28.7302 27.6313L28.8663 28.2449C29.6701 31.8675 30.0719 33.6788 29.3703 34.4601C29.1081 34.752 28.7673 34.9622 28.3887 35.0655C27.3757 35.3419 25.9373 34.1699 23.0607 31.8259C21.1718 30.2867 20.2274 29.5171 19.1431 29.344C18.7165 29.2759 18.2819 29.2759 17.8554 29.344C16.7711 29.5171 15.8266 30.2867 13.9377 31.8259C11.0611 34.1699 9.62282 35.3419 8.60974 35.0655C8.23118 34.9622 7.8904 34.752 7.6282 34.4601C6.92653 33.6788 7.3284 31.8675 8.13215 28.2449L8.26828 27.6313C8.70563 25.6601 8.9243 24.6746 8.69552 23.7463C8.65284 23.5731 8.59887 23.403 8.53394 23.2369C8.18589 22.3464 7.43915 21.6671 5.94565 20.3083L4.961 19.4125C2.0107 16.7283 0.53555 15.3862 0.960581 14.1225C1.38561 12.8587 3.37196 12.6808 7.34467 12.325L7.7835 12.2857C10.2109 12.0683 11.4246 11.9597 12.3491 11.2722C13.2737 10.5848 13.7273 9.45389 14.6346 7.19199L14.7094 7.00556Z" stroke="#222222" stroke-width="1.5"/>
</svg>
